<svg id="圖層_1" data-name="圖層 1" xmlns="http://www.w3.org/2000/svg" xmlns:xlink="http://www.w3.org/1999/xlink" viewBox="0 0 143 114.25"><defs><style>.cls-1{fill:none;}.cls-2{clip-path:url(#clip-path);}.cls-3{fill:#fff;}.cls-4{fill:#040000;}</style><clipPath id="clip-path" transform="translate(-415.83 -283.21)"><rect class="cls-1" x="415.83" y="283.21" width="143" height="114.25"/></clipPath></defs><title>未命名-2</title><g id="圖稿_31" data-name="圖稿 31"><g class="cls-2"><g class="cls-2"><path class="cls-3" d="M434.33,367.71H423.49a7.17,7.17,0,0,1-7.16-7.16V290.87a7.17,7.17,0,0,1,7.16-7.16H551.17a7.17,7.17,0,0,1,7.16,7.16v69.68a7.17,7.17,0,0,1-7.16,7.16h-88.3l-28.54,28.71Zm84.5-48.5a6.5,6.5,0,1,0,6.5,6.5,6.51,6.51,0,0,0-6.5-6.5m-31.5,0a6.5,6.5,0,1,0,6.5,6.5,6.51,6.51,0,0,0-6.5-6.5m-31.5,0a6.5,6.5,0,1,0,6.5,6.5,6.51,6.51,0,0,0-6.5-6.5" transform="translate(-415.83 -283.21)"/><path class="cls-4" d="M551.17,284.21a6.67,6.67,0,0,1,6.66,6.66v69.68a6.67,6.67,0,0,1-6.66,6.66H462.67l-.29.29-27.54,27.7v-28H423.49a6.67,6.67,0,0,1-6.66-6.66V290.87a6.67,6.67,0,0,1,6.66-6.66H551.17m-32.34,48.5a7,7,0,1,0-7-7,7,7,0,0,0,7,7m-31.5,0a7,7,0,1,0-7-7,7,7,0,0,0,7,7m-31.5,0a7,7,0,1,0-7-7,7,7,0,0,0,7,7m95.34-49.5H423.49a7.66,7.66,0,0,0-7.66,7.66v69.68a7.66,7.66,0,0,0,7.66,7.66h10.34v29.25H434l29.08-29.25h88.09a7.66,7.66,0,0,0,7.66-7.66V290.87a7.66,7.66,0,0,0-7.66-7.66m-32.34,48.5a6,6,0,1,1,6-6,6,6,0,0,1-6,6m-31.5,0a6,6,0,1,1,6-6,6,6,0,0,1-6,6m-31.5,0a6,6,0,1,1,6-6,6,6,0,0,1-6,6" transform="translate(-415.83 -283.21)"/><path class="cls-3" d="M455.83,331.21a5.5,5.5,0,1,1,5.5-5.5,5.51,5.51,0,0,1-5.5,5.5" transform="translate(-415.83 -283.21)"/><path class="cls-4" d="M455.83,320.71a5,5,0,1,1-5,5,5,5,0,0,1,5-5m0-1a6,6,0,1,0,6,6,6,6,0,0,0-6-6" transform="translate(-415.83 -283.21)"/><path class="cls-3" d="M487.33,331.21a5.5,5.5,0,1,1,5.5-5.5,5.51,5.51,0,0,1-5.5,5.5" transform="translate(-415.83 -283.21)"/><path class="cls-4" d="M487.33,320.71a5,5,0,1,1-5,5,5,5,0,0,1,5-5m0-1a6,6,0,1,0,6,6,6,6,0,0,0-6-6" transform="translate(-415.83 -283.21)"/><path class="cls-3" d="M518.83,331.21a5.5,5.5,0,1,1,5.5-5.5,5.51,5.51,0,0,1-5.5,5.5" transform="translate(-415.83 -283.21)"/><path class="cls-4" d="M518.83,320.71a5,5,0,1,1-5,5,5,5,0,0,1,5-5m0-1a6,6,0,1,0,6,6,6,6,0,0,0-6-6" transform="translate(-415.83 -283.21)"/><path class="cls-4" d="M493.33,325.71a6,6,0,1,1-6-6,6,6,0,0,1,6,6" transform="translate(-415.83 -283.21)"/><path class="cls-4" d="M524.83,325.71a6,6,0,1,1-6-6,6,6,0,0,1,6,6" transform="translate(-415.83 -283.21)"/><path class="cls-4" d="M461.83,325.71a6,6,0,1,1-6-6,6,6,0,0,1,6,6" transform="translate(-415.83 -283.21)"/></g></g></g></svg>