<svg id="圖層_1" data-name="圖層 1" xmlns="http://www.w3.org/2000/svg" xmlns:xlink="http://www.w3.org/1999/xlink" viewBox="0 0 114.77 191.04"><defs><style>.cls-1,.cls-4,.cls-5{fill:none;}.cls-2{clip-path:url(#clip-path);}.cls-3{fill:#fff;}.cls-4,.cls-5{stroke:#040000;stroke-miterlimit:10;}.cls-4{stroke-linecap:round;}.cls-5{stroke-linecap:square;}.cls-6{fill:#040000;}</style><clipPath id="clip-path" transform="translate(-579.41 -153.01)"><rect class="cls-1" x="515.15" y="153.01" width="179.03" height="227.98"/></clipPath></defs><title>未命名-2</title><g id="圖稿_26" data-name="圖稿 26"><g class="cls-2"><g class="cls-2"><path class="cls-3" d="M586.14,231.41c.28-.06.56-.14.84-.22a99.89,99.89,0,0,0,45.19-27l33.28,17.62a99.89,99.89,0,0,0,3.07,52.54c.09.28.18.56.29.82l-87.88,67.08,40-75.57a15,15,0,0,0,19.83-6.46c.08-.15.16-.3.23-.45a15,15,0,0,0-26.49-14c-.08.14-.16.29-.24.44a15,15,0,0,0,5.8,20L580,341.8Z" transform="translate(-579.41 -153.01)"/><path class="cls-4" d="M586.14,231.41c.28-.06.56-.14.84-.22a99.89,99.89,0,0,0,45.19-27l33.28,17.62a99.89,99.89,0,0,0,3.07,52.54c.09.28.18.56.29.82l-87.88,67.08,40-75.57a15,15,0,0,0,19.83-6.46c.08-.15.16-.3.23-.45a15,15,0,0,0-26.49-14c-.08.14-.16.29-.24.44a15,15,0,0,0,5.8,20L580,341.8Z" transform="translate(-579.41 -153.01)"/><polyline class="cls-3" points="114.09 19.39 95.46 54.57 60.11 35.85 78.74 0.68"/><polyline class="cls-5" points="114.09 19.39 95.46 54.57 60.11 35.85 78.74 0.68"/><rect class="cls-3" x="645.88" y="177.65" width="11" height="61" transform="translate(-416.82 533.38) rotate(-62.1)"/><rect class="cls-4" x="645.88" y="177.65" width="11" height="61" transform="translate(-416.82 533.38) rotate(-62.1)"/><rect class="cls-6" x="652.53" y="180.43" width="7" height="40" transform="translate(-407.51 533.39) rotate(-62.1)"/><rect class="cls-4" x="652.53" y="180.43" width="7" height="40" transform="translate(-407.51 533.39) rotate(-62.1)"/></g></g></g></svg>