<svg id="圖層_1" data-name="圖層 1" xmlns="http://www.w3.org/2000/svg" xmlns:xlink="http://www.w3.org/1999/xlink" viewBox="0 0 234 336"><defs><style>.cls-1,.cls-6{fill:none;}.cls-2{clip-path:url(#clip-path);}.cls-3{fill:#fff;}.cls-4{fill:#040000;}.cls-5{fill:#231815;}.cls-6{stroke:#040000;stroke-miterlimit:10;}</style><clipPath id="clip-path" transform="translate(-390.33 -163)"><rect class="cls-1" x="390.33" y="163" width="234" height="336"/></clipPath></defs><title>未命名-4</title><g id="圖稿_33" data-name="圖稿 33"><g class="cls-2"><g class="cls-2"><path class="cls-3" d="M20.1,1H213.91A19.09,19.09,0,0,1,233,20.09V315.9a19.1,19.1,0,0,1-19.1,19.1H20.1A19.09,19.09,0,0,1,1,315.91V20.09A19.09,19.09,0,0,1,20.1,1Z"/><path class="cls-4" d="M604.24,165a18.11,18.11,0,0,1,18.09,18.1V478.9A18.11,18.11,0,0,1,604.24,497H410.43a18.12,18.12,0,0,1-18.1-18.1V183.1a18.12,18.12,0,0,1,18.1-18.1H604.24m0-2H410.43a20.1,20.1,0,0,0-20.1,20.1V478.9a20.1,20.1,0,0,0,20.1,20.1H604.24a20.1,20.1,0,0,0,20.09-20.1V183.1A20.1,20.1,0,0,0,604.24,163" transform="translate(-390.33 -163)"/><path class="cls-5" d="M443.59,278.36v-7.1c-15.78-.21-23.14-10-23.19-18.41h3.21c.1,7.42,6.73,15.25,20,15.62V235l-4.94-1.37c-10.26-2.84-16.31-8.94-16.31-17.67,0-10,8-17,21.25-17.36v-7h2.89v7.1c13,.63,20.2,8,20.3,16.25h-3.05c-.11-5.89-5.31-12.89-17.25-13.52v31.3l2.1.52c13.41,3.37,19.25,9.36,19.25,18.88,0,11.78-9,18.36-21.35,19.09v7.21Zm-3.1-47.28,3.1.84V201.36c-11,.37-18,5.73-18,14.57,0,8.15,6,12.73,14.94,15.15m6.58,4.79-.58-.16v32.72c11.2-.74,18.15-6.52,18.15-16.2,0-9-6-13.2-17.57-16.36" transform="translate(-390.33 -163)"/><path class="cls-5" d="M594.33,336.75h-173a.5.5,0,0,1,0-1h173a.5.5,0,0,1,0,1" transform="translate(-390.33 -163)"/><path class="cls-6" d="M594.33,336.75h-173a.5.5,0,0,1,0-1h173a.5.5,0,0,1,0,1Z" transform="translate(-390.33 -163)"/><path class="cls-6" d="M594.33,375.5h-173a.5.5,0,0,1,0-1h173a.5.5,0,0,1,0,1Z" transform="translate(-390.33 -163)"/><path class="cls-5" d="M594.33,414.25h-173a.5.5,0,0,1,0-1h173a.5.5,0,0,1,0,1" transform="translate(-390.33 -163)"/><path class="cls-6" d="M594.33,414.25h-173a.5.5,0,0,1,0-1h173a.5.5,0,0,1,0,1Z" transform="translate(-390.33 -163)"/><path class="cls-5" d="M592.33,298h-113a.5.5,0,0,1,0-1h113a.5.5,0,0,1,0,1" transform="translate(-390.33 -163)"/><path class="cls-6" d="M592.33,298h-113a.5.5,0,0,1,0-1h113a.5.5,0,0,1,0,1Z" transform="translate(-390.33 -163)"/><path class="cls-5" d="M535.33,453h-113a.5.5,0,0,1,0-1h113a.5.5,0,0,1,0,1" transform="translate(-390.33 -163)"/><path class="cls-6" d="M535.33,453h-113a.5.5,0,0,1,0-1h113a.5.5,0,0,1,0,1Z" transform="translate(-390.33 -163)"/></g></g></g></svg>