<svg id="圖層_1" data-name="圖層 1" xmlns="http://www.w3.org/2000/svg" xmlns:xlink="http://www.w3.org/1999/xlink" viewBox="0 0 158.62 239.57"><defs><style>.cls-1,.cls-3{fill:none;}.cls-2{clip-path:url(#clip-path);}.cls-3{stroke:#040000;stroke-miterlimit:10;}.cls-4{fill:#fff;}.cls-5{fill:#040000;}.cls-6{fill:#e6e6e5;}</style><clipPath id="clip-path" transform="translate(-736 -91)"><rect class="cls-1" x="736" y="91" width="158.62" height="239.57"/></clipPath></defs><title>未命名-2</title><g id="圖稿_30" data-name="圖稿 30"><g class="cls-2"><g class="cls-2"><polyline class="cls-3" points="67.59 34.62 80.12 12.99 55.06 27.41 29.99 1.57 35.93 31.02 1.62 34.62 25.37 47.84 20.75 64.07 40.54 55.66"/><rect class="cls-4" x="41.12" y="36.07" width="117" height="203" rx="7.47" ry="7.47"/><path class="cls-5" d="M886.65,127.57a7,7,0,0,1,7,7V322.6a7,7,0,0,1-7,7H784.59a7,7,0,0,1-7-7V134.54a7,7,0,0,1,7-7H886.65m0-1H784.59a8,8,0,0,0-8,8V322.6a8,8,0,0,0,8,8H886.65a8,8,0,0,0,8-8V134.54a8,8,0,0,0-8-8" transform="translate(-736 -91)"/><rect class="cls-4" x="45.12" y="63.07" width="108" height="151"/><path class="cls-5" d="M888.62,304.57h-107v-150h107Zm1-151h-109v152h109Z" transform="translate(-736 -91)"/><polygon class="cls-6" points="149.62 204.16 67.89 204.16 67.89 203.35 108.58 108.57 149.62 204.16"/><polygon class="cls-6" points="90.1 204.14 54.62 204.14 54.62 203.73 72.29 156.14 90.1 204.14"/><path class="cls-6" d="M813.62,197.07a9.5,9.5,0,1,1-9.5-9.5,9.5,9.5,0,0,1,9.5,9.5" transform="translate(-736 -91)"/><path class="cls-4" d="M835.12,326.07a7,7,0,1,1,7-7,7,7,0,0,1-7,7" transform="translate(-736 -91)"/><path class="cls-5" d="M835.12,312.57a6.5,6.5,0,1,1-6.5,6.5,6.51,6.51,0,0,1,6.5-6.5m0-1a7.5,7.5,0,1,0,7.5,7.5,7.5,7.5,0,0,0-7.5-7.5" transform="translate(-736 -91)"/><path class="cls-4" d="M849.74,147.07H822.51a1.38,1.38,0,0,1-1.38-1.38v-1.24a1.38,1.38,0,0,1,1.38-1.38h27.24a1.38,1.38,0,0,1,1.38,1.38v1.24a1.38,1.38,0,0,1-1.38,1.38" transform="translate(-736 -91)"/><rect class="cls-3" x="85.12" y="52.07" width="30" height="4" rx="1.38" ry="1.38"/></g></g></g></svg>